<?xml version="1.0" encoding="UTF-8" standalone="no"?>
<!DOCTYPE svg PUBLIC "-//W3C//DTD SVG 1.1//EN" "http://www.w3.org/Graphics/SVG/1.1/DTD/svg11.dtd">
<!-- Generated by Microsoft Visio, SVG Export adebouncer-instant.svg Page-1 -->
<svg xmlns="http://www.w3.org/2000/svg" xmlns:xlink="http://www.w3.org/1999/xlink" xmlns:ev="http://www.w3.org/2001/xml-events"
		xmlns:v="http://schemas.microsoft.com/visio/2003/SVGExtensions/" width="14.8263in" height="11.2673in"
		viewBox="0 0 1067.49 811.249" xml:space="preserve" color-interpolation-filters="sRGB" class="st22">
	<v:documentProperties v:langID="1033" v:viewMarkup="false"/>

	<style type="text/css">
	<![CDATA[
		.st1 {marker-end:url(#mrkr5-6);stroke:#7f7f7f;stroke-dasharray:15.75,11.25,0,11.25;stroke-linecap:round;stroke-linejoin:round;stroke-width:2.25}
		.st2 {fill:#7f7f7f;fill-opacity:1;stroke:#7f7f7f;stroke-opacity:1;stroke-width:0.47169811320755}
		.st3 {stroke:#ff2828;stroke-dasharray:7,5,0,5;stroke-linecap:round;stroke-linejoin:round;stroke-width:1}
		.st4 {stroke:#00b0f0;stroke-dasharray:2.25,4.5;stroke-linecap:round;stroke-linejoin:round;stroke-width:2.25}
		.st5 {stroke:#000000;stroke-linecap:round;stroke-linejoin:round;stroke-width:2.25}
		.st6 {fill:none;stroke:none;stroke-width:2.25}
		.st7 {fill:#008000;font-family:Calibri;font-size:1.5em}
		.st8 {fill:#000000;font-family:Calibri;font-size:1.5em}
		.st9 {font-size:1em}
		.st10 {fill:#c00000;font-family:Calibri;font-size:1.5em}
		.st11 {baseline-shift:-32.4951%;font-size:0.649902em}
		.st12 {fill:#ed7d31;font-family:Calibri;font-size:1.5em}
		.st13 {fill:#008f83;font-family:Calibri;font-size:1.5em}
		.st14 {stroke:#c00000;stroke-width:2.25}
		.st15 {stroke:#00b050;stroke-width:2.25}
		.st16 {marker-end:url(#mrkr1-161);marker-start:url(#mrkr1-159);stroke:#002060;stroke-linecap:round;stroke-linejoin:round;stroke-width:1}
		.st17 {fill:#002060;fill-opacity:1;stroke:#002060;stroke-opacity:1;stroke-width:0.28409090909091}
		.st18 {fill:#ffffff;stroke:none;stroke-linecap:butt;stroke-width:7.2}
		.st19 {stroke:#000000;stroke-width:2.25}
		.st20 {stroke:#ed7d31;stroke-width:2.25}
		.st21 {stroke:#008f83;stroke-width:2.25}
		.st22 {fill:none;fill-rule:evenodd;font-size:12px;overflow:visible;stroke-linecap:square;stroke-miterlimit:3}
	]]>
	</style>

	<defs id="Markers">
		<g id="lend5">
			<path d="M 2 1 L 0 0 L 1.98117 -0.993387 C 1.67173 -0.364515 1.67301 0.372641 1.98465 1.00043 " style="stroke:none"/>
		</g>
		<marker id="mrkr5-6" class="st2" v:arrowType="5" v:arrowSize="2" v:setback="3.55" refX="-3.55" orient="auto"
				markerUnits="strokeWidth" overflow="visible">
			<use xlink:href="#lend5" transform="scale(-2.12,-2.12) "/>
		</marker>
		<g id="lend1">
			<path d="M 1 -1 L 0 0 L 1 1 " style="stroke-linecap:round;stroke-linejoin:round;fill:none"/>
		</g>
		<marker id="mrkr1-159" class="st17" v:arrowType="1" v:arrowSize="2" orient="auto" markerUnits="strokeWidth"
				overflow="visible">
			<use xlink:href="#lend1" transform="scale(3.52) "/>
		</marker>
		<marker id="mrkr1-161" class="st17" v:arrowType="1" v:arrowSize="2" orient="auto" markerUnits="strokeWidth"
				overflow="visible">
			<use xlink:href="#lend1" transform="scale(-3.52,-3.52) "/>
		</marker>
	</defs>
	<g v:mID="0" v:index="1" v:groupContext="foregroundPage">
		<title>Page-1</title>
		<v:pageProperties v:drawingScale="0.0393701" v:pageScale="0.0393701" v:drawingUnits="24" v:shadowOffsetX="8.50394"
				v:shadowOffsetY="-8.50394"/>
		<v:layer v:name="DIGITAL - LL TRIP" v:index="0"/>
		<v:layer v:name="FAULT - AUTO MOS" v:index="1" v:print="false"/>
		<v:layer v:name="DIGITAL - HH TRIP" v:index="2"/>
		<g id="shape1151-1" v:mID="1151" v:groupContext="shape" transform="translate(1685.15,30.5965) rotate(90)">
			<title>Sheet.1151</title>
			<path d="M-0 775.82 A141.732 35.4331 0 0 0 280.12 783.47 L280.27 783.14" class="st1"/>
		</g>
		<g id="shape1146-7" v:mID="1146" v:groupContext="shape" transform="translate(1004.84,143.982) rotate(90)">
			<title>Sheet.1146</title>
			<path d="M-0 775.82 A141.732 35.4331 0 0 0 280.12 783.47 L280.27 783.14" class="st1"/>
		</g>
		<g id="shape1147-12" v:mID="1147" v:groupContext="shape" transform="translate(1104.05,30.5965) rotate(90)">
			<title>Sheet.1147</title>
			<path d="M-0 775.82 A141.732 35.4331 0 0 0 280.12 783.47 L280.27 783.14" class="st1"/>
		</g>
		<g id="shape1148-17" v:mID="1148" v:groupContext="shape" transform="translate(1401.69,30.5965) rotate(90)">
			<title>Sheet.1148</title>
			<path d="M-0 775.82 A141.732 35.4331 0 0 0 280.12 783.47 L280.27 783.14" class="st1"/>
		</g>
		<g id="shape1149-22" v:mID="1149" v:groupContext="shape" transform="translate(1500.9,143.982) rotate(90)">
			<title>Sheet.1149</title>
			<path d="M-0 775.82 A141.732 35.4331 0 0 0 280.12 783.47 L280.27 783.14" class="st1"/>
		</g>
		<g id="shape1150-27" v:mID="1150" v:groupContext="shape" transform="translate(1571.77,30.5965) rotate(90)">
			<title>Sheet.1150</title>
			<path d="M0 775.82 A141.732 35.4331 0 0 0 280.12 783.47 L280.27 783.14" class="st1"/>
		</g>
		<g id="shape1152-32" v:mID="1152" v:groupContext="shape" transform="translate(1289.31,146.753) rotate(90.2046)">
			<title>Sheet.1152</title>
			<path d="M-0 775.82 A141.733 35.4331 0 0 0 280.12 783.47 L280.27 783.14" class="st1"/>
		</g>
		<g id="shape1056-37" v:mID="1056" v:groupContext="shape" transform="translate(1040.27,2.25) rotate(90)">
			<title>Sheet.1056</title>
			<path d="M0 811.25 L807.87 811.25" class="st3"/>
		</g>
		<g id="shape1121-40" v:mID="1121" v:groupContext="shape" transform="translate(1082.79,2.25) rotate(90)">
			<title>Sheet.1121</title>
			<path d="M0 811.25 L807.87 811.25" class="st3"/>
		</g>
		<g id="shape1122-43" v:mID="1122" v:groupContext="shape" transform="translate(1139.48,2.25) rotate(90)">
			<title>Sheet.1122</title>
			<path d="M0 811.25 L807.87 811.25" class="st3"/>
		</g>
		<g id="shape1123-46" v:mID="1123" v:groupContext="shape" transform="translate(1267.04,2.25) rotate(90)">
			<title>Sheet.1123</title>
			<path d="M0 811.25 L807.87 811.25" class="st3"/>
		</g>
		<g id="shape1124-49" v:mID="1124" v:groupContext="shape" transform="translate(1323.74,2.25) rotate(90)">
			<title>Sheet.1124</title>
			<path d="M0 811.25 L807.87 811.25" class="st3"/>
		</g>
		<g id="shape1125-52" v:mID="1125" v:groupContext="shape" transform="translate(1437.12,2.25) rotate(90)">
			<title>Sheet.1125</title>
			<path d="M0 811.25 L807.87 811.25" class="st3"/>
		</g>
		<g id="shape1126-55" v:mID="1126" v:groupContext="shape" transform="translate(1536.33,2.25) rotate(90)">
			<title>Sheet.1126</title>
			<path d="M0 811.25 L807.87 811.25" class="st3"/>
		</g>
		<g id="shape1127-58" v:mID="1127" v:groupContext="shape" transform="translate(1479.64,2.25) rotate(90)">
			<title>Sheet.1127</title>
			<path d="M0 811.25 L807.87 811.25" class="st3"/>
		</g>
		<g id="shape1128-61" v:mID="1128" v:groupContext="shape" transform="translate(1607.2,2.25) rotate(90)">
			<title>Sheet.1128</title>
			<path d="M0 811.25 L807.87 811.25" class="st3"/>
		</g>
		<g id="shape1129-64" v:mID="1129" v:groupContext="shape" transform="translate(1663.89,2.25) rotate(90)">
			<title>Sheet.1129</title>
			<path d="M0 811.25 L807.87 811.25" class="st3"/>
		</g>
		<g id="shape1130-67" v:mID="1130" v:groupContext="shape" transform="translate(1720.59,2.25) rotate(90)">
			<title>Sheet.1130</title>
			<path d="M0 811.25 L807.87 811.25" class="st3"/>
		</g>
		<g id="shape1047-70" v:mID="1047" v:groupContext="shape" transform="translate(115.636,-780.652) rotate(3.82379E-07)">
			<title>Sheet.1047</title>
			<path d="M0 811.25 L878.74 811.25" class="st4"/>
		</g>
		<g id="shape1048-73" v:mID="1048" v:groupContext="shape" transform="translate(115.636,-667.267)">
			<title>Sheet.1048</title>
			<path d="M0 811.25 L878.74 811.25" class="st4"/>
		</g>
		<g id="shape1049-76" v:mID="1049" v:groupContext="shape" transform="translate(115.636,-610.574) rotate(3.82379E-07)">
			<title>Sheet.1049</title>
			<path d="M0 811.25 L878.74 811.25" class="st4"/>
		</g>
		<g id="shape1050-79" v:mID="1050" v:groupContext="shape" transform="translate(115.636,-553.881)">
			<title>Sheet.1050</title>
			<path d="M0 811.25 L878.74 811.25" class="st4"/>
		</g>
		<g id="shape1051-82" v:mID="1051" v:groupContext="shape" transform="translate(115.636,-497.188) rotate(3.82379E-07)">
			<title>Sheet.1051</title>
			<path d="M0 811.25 L878.74 811.25" class="st4"/>
		</g>
		<g id="shape1052-85" v:mID="1052" v:groupContext="shape" transform="translate(115.636,-383.802)">
			<title>Sheet.1052</title>
			<path d="M0 811.25 L878.74 811.25" class="st4"/>
		</g>
		<g id="shape1046-88" v:mID="1046" v:groupContext="shape" transform="translate(926.885,2.25004) rotate(90)">
			<title>Sheet.1046</title>
			<path d="M0 811.25 L807.87 811.25" class="st5"/>
		</g>
		<g id="shape1053-91" v:mID="1053" v:groupContext="shape" transform="translate(2.25005,-695.613)">
			<title>Sheet.1053</title>
			<desc>INPUT</desc>
			<v:textBlock v:margins="rect(4,4,4,4)" v:tabSpace="42.5197"/>
			<v:textRect cx="49.6063" cy="782.903" width="99.22" height="56.6929"/>
			<rect x="0" y="754.556" width="99.2126" height="56.6929" class="st6"/>
			<text x="49.44" y="788.3" class="st7" v:langID="2057"><v:paragraph v:horizAlign="2"/><v:tabList/>INPUT</text>		</g>
		<g id="shape1054-94" v:mID="1054" v:groupContext="shape" transform="translate(2.25005,-582.227)">
			<title>Sheet.1054</title>
			<desc>DEBOUNCE PERIOD</desc>
			<v:textBlock v:margins="rect(4,4,4,4)" v:tabSpace="42.5197"/>
			<v:textRect cx="49.6063" cy="782.903" width="99.22" height="56.6929"/>
			<rect x="0" y="754.556" width="99.2126" height="56.6929" class="st6"/>
			<text x="12.09" y="777.5" class="st8" v:langID="2057"><v:paragraph v:horizAlign="2"/><v:tabList/>DEBOUNCE<v:newlineChar/><tspan
						x="39.82" dy="1.2em" class="st9" v:langID="1033">PERIOD</tspan></text>		</g>
		<g id="shape1055-98" v:mID="1055" v:groupContext="shape" transform="translate(2.25,-412.149)">
			<title>Sheet.1055</title>
			<desc>OUTPUT</desc>
			<v:textBlock v:margins="rect(4,4,4,4)" v:tabSpace="42.5197"/>
			<v:textRect cx="49.6063" cy="782.903" width="99.22" height="56.6929"/>
			<rect x="0" y="754.556" width="99.2126" height="56.6929" class="st6"/>
			<text x="33.36" y="788.3" class="st10" v:langID="1033"><v:paragraph v:horizAlign="2"/><v:tabList/>OUTPUT</text>		</g>
		<g id="shape1077-101" v:mID="1077" v:groupContext="shape" transform="translate(994.376,-766.479)">
			<title>Sheet.1077</title>
			<desc>TRUE</desc>
			<v:textBlock v:margins="rect(4,4,4,4)" v:tabSpace="42.5197"/>
			<v:textRect cx="35.4331" cy="789.989" width="70.87" height="42.5197"/>
			<rect x="0" y="768.729" width="70.8661" height="42.5197" class="st6"/>
			<text x="15.99" y="795.39" class="st7" v:langID="2057"><v:paragraph v:horizAlign="1"/><v:tabList/>TRUE</text>		</g>
		<g id="shape1078-104" v:mID="1078" v:groupContext="shape" transform="translate(994.376,-646.007)">
			<title>Sheet.1078</title>
			<desc>FALSE</desc>
			<v:textBlock v:margins="rect(4,4,4,4)" v:tabSpace="42.5197"/>
			<v:textRect cx="35.4331" cy="789.989" width="70.87" height="42.5197"/>
			<rect x="0" y="768.729" width="70.8661" height="42.5197" class="st6"/>
			<text x="13.78" y="795.39" class="st7" v:langID="2057"><v:paragraph v:horizAlign="1"/><v:tabList/>FALSE</text>		</g>
		<g id="shape1079-107" v:mID="1079" v:groupContext="shape" transform="translate(994.376,-582.227)">
			<title>Sheet.1079</title>
			<desc>TDP</desc>
			<v:textBlock v:margins="rect(4,4,4,4)" v:tabSpace="42.5197"/>
			<v:textRect cx="35.4331" cy="782.903" width="70.87" height="56.6929"/>
			<rect x="0" y="754.556" width="70.8661" height="56.6929" class="st6"/>
			<text x="24.43" y="790.1" class="st8" v:langID="1033"><v:paragraph v:horizAlign="1"/><v:tabList/>T<tspan dy="-0.284em"
						class="st11" v:baseFontSize="18">DP</tspan></text>		</g>
		<g id="shape1080-111" v:mID="1080" v:groupContext="shape" transform="translate(994.376,-475.928)">
			<title>Sheet.1080</title>
			<desc>TRUE</desc>
			<v:textBlock v:margins="rect(4,4,4,4)" v:tabSpace="42.5197"/>
			<v:textRect cx="35.4331" cy="789.989" width="70.87" height="42.5197"/>
			<rect x="0" y="768.729" width="70.8661" height="42.5197" class="st6"/>
			<text x="15.99" y="795.39" class="st10" v:langID="2057"><v:paragraph v:horizAlign="1"/><v:tabList/>TRUE</text>		</g>
		<g id="shape1081-114" v:mID="1081" v:groupContext="shape" transform="translate(994.376,-362.542)">
			<title>Sheet.1081</title>
			<desc>FALSE</desc>
			<v:textBlock v:margins="rect(4,4,4,4)" v:tabSpace="42.5197"/>
			<v:textRect cx="35.4331" cy="789.989" width="70.87" height="42.5197"/>
			<rect x="0" y="768.729" width="70.8661" height="42.5197" class="st6"/>
			<text x="13.78" y="795.39" class="st10" v:langID="2057"><v:paragraph v:horizAlign="1"/><v:tabList/>FALSE</text>		</g>
		<g id="shape1095-117" v:mID="1095" v:groupContext="shape" transform="translate(115.636,-327.109) rotate(3.82379E-07)">
			<title>Sheet.1095</title>
			<path d="M0 811.25 L878.74 811.25" class="st4"/>
		</g>
		<g id="shape1096-120" v:mID="1096" v:groupContext="shape" transform="translate(115.636,-213.723)">
			<title>Sheet.1096</title>
			<path d="M0 811.25 L878.74 811.25" class="st4"/>
		</g>
		<g id="shape1097-123" v:mID="1097" v:groupContext="shape" transform="translate(994.376,-305.849)">
			<title>Sheet.1097</title>
			<desc>TRUE</desc>
			<v:textBlock v:margins="rect(4,4,4,4)" v:tabSpace="42.5197"/>
			<v:textRect cx="35.4331" cy="789.989" width="70.87" height="42.5197"/>
			<rect x="0" y="768.729" width="70.8661" height="42.5197" class="st6"/>
			<text x="15.99" y="795.39" class="st12" v:langID="2057"><v:paragraph v:horizAlign="1"/><v:tabList/>TRUE</text>		</g>
		<g id="shape1098-126" v:mID="1098" v:groupContext="shape" transform="translate(994.376,-192.464)">
			<title>Sheet.1098</title>
			<desc>FALSE</desc>
			<v:textBlock v:margins="rect(4,4,4,4)" v:tabSpace="42.5197"/>
			<v:textRect cx="35.4331" cy="789.989" width="70.87" height="42.5197"/>
			<rect x="0" y="768.729" width="70.8661" height="42.5197" class="st6"/>
			<text x="13.78" y="795.39" class="st12" v:langID="2057"><v:paragraph v:horizAlign="1"/><v:tabList/>FALSE</text>		</g>
		<g id="shape1099-129" v:mID="1099" v:groupContext="shape" transform="translate(115.636,-157.03) rotate(3.82379E-07)">
			<title>Sheet.1099</title>
			<path d="M0 811.25 L878.74 811.25" class="st4"/>
		</g>
		<g id="shape1100-132" v:mID="1100" v:groupContext="shape" transform="translate(115.636,-43.6446)">
			<title>Sheet.1100</title>
			<path d="M0 811.25 L878.74 811.25" class="st4"/>
		</g>
		<g id="shape1101-135" v:mID="1101" v:groupContext="shape" transform="translate(994.376,-135.771)">
			<title>Sheet.1101</title>
			<desc>TRUE</desc>
			<v:textBlock v:margins="rect(4,4,4,4)" v:tabSpace="42.5197"/>
			<v:textRect cx="35.4331" cy="789.989" width="70.87" height="42.5197"/>
			<rect x="0" y="768.729" width="70.8661" height="42.5197" class="st6"/>
			<text x="15.99" y="795.39" class="st13" v:langID="2057"><v:paragraph v:horizAlign="1"/><v:tabList/>TRUE</text>		</g>
		<g id="shape1102-138" v:mID="1102" v:groupContext="shape" transform="translate(994.376,-22.3848)">
			<title>Sheet.1102</title>
			<desc>FALSE</desc>
			<v:textBlock v:margins="rect(4,4,4,4)" v:tabSpace="42.5197"/>
			<v:textRect cx="35.4331" cy="789.989" width="70.87" height="42.5197"/>
			<rect x="0" y="768.729" width="70.8661" height="42.5197" class="st6"/>
			<text x="13.78" y="795.39" class="st13" v:langID="2057"><v:paragraph v:horizAlign="1"/><v:tabList/>FALSE</text>		</g>
		<g id="shape1103-141" v:mID="1103" v:groupContext="shape" transform="translate(2.25,-242.07)">
			<title>Sheet.1103</title>
			<desc>RISING</desc>
			<v:textBlock v:margins="rect(4,4,4,4)" v:tabSpace="42.5197"/>
			<v:textRect cx="49.6063" cy="782.903" width="99.22" height="56.6929"/>
			<rect x="0" y="754.556" width="99.2126" height="56.6929" class="st6"/>
			<text x="45.12" y="788.3" class="st12" v:langID="1033"><v:paragraph v:horizAlign="2"/><v:tabList/>RISING</text>		</g>
		<g id="shape1104-144" v:mID="1104" v:groupContext="shape" transform="translate(2.25,-71.9911)">
			<title>Sheet.1104</title>
			<desc>FALLING</desc>
			<v:textBlock v:margins="rect(4,4,4,4)" v:tabSpace="42.5197"/>
			<v:textRect cx="49.6063" cy="782.903" width="99.22" height="56.6929"/>
			<rect x="0" y="754.556" width="99.2126" height="56.6929" class="st6"/>
			<text x="33.88" y="788.3" class="st13" v:langID="1033"><v:paragraph v:horizAlign="2"/><v:tabList/>FALLING</text>		</g>
		<g id="shape1120-147" v:mID="1120" v:groupContext="shape" transform="translate(115.636,-383.802)">
			<title>Sheet.1120</title>
			<path d="M0 697.86 L113.39 697.86 L113.39 811.25 L212.6 811.25 L212.6 697.86 L283.46 697.86 L283.46 811.25 L510.24 811.25
						 L510.24 697.86 L609.45 697.86 L609.45 811.25 L680.32 811.25 L680.31 697.86 L850.39 697.86" class="st14"/>
		</g>
		<g id="shape1131-150" v:mID="1131" v:groupContext="shape" transform="translate(115.636,-667.267)">
			<title>Sheet.1131</title>
			<path d="M847.36 697.86 L737.01 697.86 L737.01 811.25 L722.83 811.25 L722.83 697.86 L708.66 697.86 L708.66 811.25 L694.49
						 811.25 L694.49 697.86 L680.31 697.86 L680.31 811.25 L552.76 811.25 L552.76 697.86 L538.58 697.86 L538.58
						 811.25 L524.41 811.25 L524.41 697.86 L510.24 697.86 L510.24 811.25 L340.16 811.25 L340.16 697.86 L325.98
						 697.86 L325.98 811.25 L311.81 811.25 L311.81 697.86 L297.64 697.86 L297.64 811.25 L283.46 811.25 L283.46
						 697.86 L155.91 697.86 L155.91 811.25 L141.73 811.25 L141.73 697.86 L127.56 697.86 L127.56 811.25 L113.39
						 811.25 L113.39 697.86 L0 697.86" class="st15"/>
		</g>
		<g id="shape1132-153" v:mID="1132" v:groupContext="shape" v:layerMember="0;1;2" transform="translate(271.541,-610.574)">
			<title>Sheet.1132</title>
			<desc>TDP</desc>
			<v:textBlock v:margins="rect(4,4,4,4)" v:tabSpace="42.5197" v:verticalAlign="2"/>
			<v:textRect cx="28.3465" cy="811.249" width="56.7" height="0"/>
			<path d="M0 811.25 L56.69 811.25" class="st16"/>
			<rect v:rectContext="textBkgnd" x="17.3405" y="785.649" width="22.0119" height="22.5382" class="st18"/>
			<text x="17.34" y="801.85" class="st8" v:langID="1033"><v:paragraph v:horizAlign="1"/><v:tabList/>T<tspan dy="-0.284em"
						class="st11" v:baseFontSize="18">DP</tspan></text>		</g>
		<g id="shape1135-165" v:mID="1135" v:groupContext="shape" v:layerMember="0;1;2" transform="translate(668.392,-610.574)">
			<title>Sheet.1135</title>
			<desc>TDP</desc>
			<v:textBlock v:margins="rect(4,4,4,4)" v:tabSpace="42.5197" v:verticalAlign="2"/>
			<v:textRect cx="28.3465" cy="811.249" width="56.7" height="0"/>
			<path d="M0 811.25 L56.69 811.25" class="st16"/>
			<rect v:rectContext="textBkgnd" x="17.3405" y="785.649" width="22.0119" height="22.5382" class="st18"/>
			<text x="17.34" y="801.85" class="st8" v:langID="1033"><v:paragraph v:horizAlign="1"/><v:tabList/>T<tspan dy="-0.284em"
						class="st11" v:baseFontSize="18">DP</tspan></text>		</g>
		<g id="shape1137-175" v:mID="1137" v:groupContext="shape" transform="translate(115.636,-553.881)">
			<title>Sheet.1137</title>
			<path d="M0 811.25 L113.39 811.25 L127.56 797.08 L127.56 811.25 L141.73 797.08 L142.74 811.25 L155.91 797.08 L155.91
						 811.25 L212.6 754.56 L212.6 811.25 L283.46 811.25 L297.64 797.08 L298.65 811.25 L311.81 797.08 L311.81 811.25
						 L325.98 797.08 L323.96 811.25 L340.16 797.08 L340.16 811.25 L396.85 754.56 L396.85 811.25 L510.24 811.25
						 L524.41 797.08 L524.41 811.25 L538.58 797.08 L538.58 811.25 L552.76 797.08 L552.76 811.25 L609.45 754.56
						 L609.45 811.25 L680.31 811.25 L694.49 797.08 L695.5 811.25 L708.66 797.08 L708.66 811.25 L722.83 797.08
						 L722.83 811.25 L737.01 797.08 L737.01 811.25 L793.7 754.56 L793.7 811.25 L850.39 811.25" class="st19"/>
		</g>
		<g id="shape1138-178" v:mID="1138" v:groupContext="shape" v:layerMember="0;1;2" transform="translate(455.793,-610.574)">
			<title>Sheet.1138</title>
			<desc>TDP</desc>
			<v:textBlock v:margins="rect(4,4,4,4)" v:tabSpace="42.5197" v:verticalAlign="2"/>
			<v:textRect cx="28.3465" cy="811.249" width="56.7" height="0"/>
			<path d="M0 811.25 L56.69 811.25" class="st16"/>
			<rect v:rectContext="textBkgnd" x="17.3405" y="785.649" width="22.0119" height="22.5382" class="st18"/>
			<text x="17.34" y="801.85" class="st8" v:langID="1033"><v:paragraph v:horizAlign="1"/><v:tabList/>T<tspan dy="-0.284em"
						class="st11" v:baseFontSize="18">DP</tspan></text>		</g>
		<g id="shape1139-188" v:mID="1139" v:groupContext="shape" v:layerMember="0;1;2" transform="translate(852.644,-610.574)">
			<title>Sheet.1139</title>
			<desc>TDP</desc>
			<v:textBlock v:margins="rect(4,4,4,4)" v:tabSpace="42.5197" v:verticalAlign="2"/>
			<v:textRect cx="28.3465" cy="811.249" width="56.7" height="0"/>
			<path d="M0 811.25 L56.69 811.25" class="st16"/>
			<rect v:rectContext="textBkgnd" x="17.3405" y="785.649" width="22.0119" height="22.5382" class="st18"/>
			<text x="17.34" y="801.85" class="st8" v:langID="1033"><v:paragraph v:horizAlign="1"/><v:tabList/>T<tspan dy="-0.284em"
						class="st11" v:baseFontSize="18">DP</tspan></text>		</g>
		<g id="shape1142-198" v:mID="1142" v:groupContext="shape" transform="translate(115.636,-213.723)">
			<title>Sheet.1142</title>
			<path d="M0 811.25 L212.6 811.25 L212.6 697.86 L226.77 697.86 L226.77 811.25 L510.24 811.25 L510.24 697.86 L524.41 697.86
						 L524.41 811.25 L680.31 811.25 L680.31 697.86 L694.49 697.86 L694.49 811.25 L852.42 811.25" class="st20"/>
		</g>
		<g id="shape1145-201" v:mID="1145" v:groupContext="shape" transform="translate(115.636,-43.6447)">
			<title>Sheet.1145</title>
			<path d="M0 811.25 L113.39 811.25 L113.39 697.86 L127.56 697.86 L127.56 811.25 L283.46 811.25 L283.46 697.86 L297.64
						 697.86 L297.64 811.25 L609.45 811.25 L610.46 697.86 L623.62 697.86 L623.62 811.25 L850.39 811.25"
					class="st21"/>
		</g>
	</g>
</svg>
